<svg xmlns="http://www.w3.org/2000/svg" viewBox="0 0 649.96 570.76"><defs><style>.cls-1{fill:#fff;}</style></defs><title>Asset 11</title><g id="Layer_2" data-name="Layer 2"><g id="Logo_and_type" data-name="Logo and type"><path class="cls-1" d="M0,540.44,41.5,438.85H59.06l41.36,101.59H78.36l-7-19.3H29l-7,19.3Zm46.58-64.58L35.7,503.58h29L53.84,475.86a107.74,107.74,0,0,1-3.63-11.61A78.21,78.21,0,0,1,46.58,475.86Z"/><path class="cls-1" d="M120.73,540.44,89.24,465h23.22l15.09,43.1a81.58,81.58,0,0,1,3.2,12,80.34,80.34,0,0,1,3.19-12L149,465h22.78l-31.34,75.46Z"/><path class="cls-1" d="M188.21,570.76c-1.94,0-4.11-.09-6.53-.29a31.24,31.24,0,0,1-6.53-1.16l2.9-18.72a36.31,36.31,0,0,0,8.85,1,13.34,13.34,0,0,0,9.29-3.27,18.36,18.36,0,0,0,5.22-8.19l1-3.2-29.89-72h23.65l14.66,43.1a82.82,82.82,0,0,1,3.19,12,81.56,81.56,0,0,1,3.19-12L231.89,465h23.22l-33.38,80.24a51.5,51.5,0,0,1-12.48,18.51Q201.56,570.76,188.21,570.76Z"/><path class="cls-1" d="M289.93,542.32a37.61,37.61,0,0,1-15.16-3.05A39.14,39.14,0,0,1,254,518.16a39.86,39.86,0,0,1-3-15.45A39.2,39.2,0,0,1,291,463.09a41.74,41.74,0,0,1,18.43,3.63,32.22,32.22,0,0,1,12.92,10.45L307.2,489.5a19.48,19.48,0,0,0-6.74-6.24,18.49,18.49,0,0,0-9.22-2.32,19.73,19.73,0,0,0-10.88,3,20.3,20.3,0,0,0-7.19,7.91,23.48,23.48,0,0,0-2.54,10.89,22.53,22.53,0,0,0,2.69,10.81,21.05,21.05,0,0,0,7.4,8,20.13,20.13,0,0,0,11,3,17.16,17.16,0,0,0,9.57-2.54,25.92,25.92,0,0,0,6.82-6.45l14.23,12.33A37.66,37.66,0,0,1,309,538.48Q301.1,542.32,289.93,542.32Z"/><path class="cls-1" d="M361.33,542.32A38.66,38.66,0,0,1,340.87,537a37.31,37.31,0,0,1-13.71-14.29,40.62,40.62,0,0,1-4.86-19.81,40.18,40.18,0,0,1,5.07-20,39,39,0,0,1,13.86-14.44,37.78,37.78,0,0,1,20.1-5.37,37,37,0,0,1,19.95,5.37,37.58,37.58,0,0,1,13.5,14.44,41.56,41.56,0,0,1,4.86,20c0,1.07-.05,2.18-.14,3.34s-.25,2.37-.44,3.63H342.61a20.15,20.15,0,0,0,6.46,10.88,18,18,0,0,0,12.26,4.21,20.78,20.78,0,0,0,11.1-2.9,21.58,21.58,0,0,0,7.33-7.26L395,526.21q-4.5,7.13-13.5,11.61A44.46,44.46,0,0,1,361.33,542.32Zm-.29-62.4a17.76,17.76,0,0,0-11.9,4.21,20,20,0,0,0-6.53,11h37.3a21.34,21.34,0,0,0-6.61-10.74A17.67,17.67,0,0,0,361,479.92Z"/><path class="cls-1" d="M408.2,540.44V465h19.3v11q6-12.76,23.08-12.77A28.71,28.71,0,0,1,465.23,467a26.82,26.82,0,0,1,10.31,10.74,34.27,34.27,0,0,1,3.77,16.54v46.15H459.72V499.08q0-9.87-4.5-14.3t-11.76-4.42a15.49,15.49,0,0,0-10.95,4.42q-4.72,4.44-4.72,14.3v41.36Z"/><path class="cls-1" d="M490.19,540.44V465h19.3v11q6-12.76,23.07-12.77A28.72,28.72,0,0,1,547.22,467a26.8,26.8,0,0,1,10.3,10.74,34.16,34.16,0,0,1,3.78,16.54v46.15H541.71V499.08q0-9.87-4.5-14.3t-11.76-4.42a15.49,15.49,0,0,0-11,4.42q-4.72,4.44-4.72,14.3v41.36Z"/><path class="cls-1" d="M606.57,542.32A34.79,34.79,0,0,1,587.78,537a38.92,38.92,0,0,1-13.5-14.23,39.74,39.74,0,0,1-5-19.8,40.8,40.8,0,0,1,10.88-27.94A37.53,37.53,0,0,1,592,466.5a34.29,34.29,0,0,1,14.58-3.12q9.87,0,15.38,3.7a25,25,0,0,1,8.56,9.8V465H650v75.46H631V528.1a26,26,0,0,1-8.63,10.3Q616.73,542.33,606.57,542.32Zm3.19-17.7a20.14,20.14,0,0,0,18.58-10.88A22.62,22.62,0,0,0,631,503a22.93,22.93,0,0,0-2.61-10.89,21.13,21.13,0,0,0-7.33-8,21.94,21.94,0,0,0-22.2-.07,20.5,20.5,0,0,0-7.33,7.91,23.54,23.54,0,0,0,0,21.55,21,21,0,0,0,7.33,8.05A19.72,19.72,0,0,0,609.76,524.62Z"/><path id="Logo" class="cls-1" d="M487.6,339.4l-27.63,16A28.37,28.37,0,0,1,421.22,345l-43.8-75.87c-27-46.8-71.24-46.8-98.26,0L235.36,345a28.36,28.36,0,0,1-38.74,10.38L169,339.4a56.89,56.89,0,0,1-20.76-77.49L260.74,67,279.16,35.1c27-46.8,71.24-46.8,98.26,0L395.85,67,508.37,261.91A56.89,56.89,0,0,1,487.6,339.4Z"/></g></g></svg>