<svg xmlns="http://www.w3.org/2000/svg" viewBox="0 0 1629.01 359.17"><defs><style>.cls-1{font-size:250.7px;font-family:CalSans-Regular, Cal Sans;}.cls-1,.cls-5{fill:#fff;}.cls-2{letter-spacing:-0.04em;}.cls-3{letter-spacing:0.03em;}.cls-4{letter-spacing:-0.03em;}</style></defs><title>Asset 12</title><g id="Layer_2" data-name="Layer 2"><g id="Layer_4" data-name="Layer 4"><text id="Avycenna_CalSans" data-name="Avycenna CalSans" class="cls-1" transform="translate(500.87 258.09)"><tspan class="cls-2">A</tspan><tspan class="cls-3" x="153.18" y="0">v</tspan><tspan class="cls-4" x="297.08" y="0">yc</tspan><tspan x="547.03" y="0">enna</tspan></text></g><g id="Logo_and_type" data-name="Logo and type"><path id="Logo" class="cls-5" d="M346.94,339.4l-27.63,16A28.37,28.37,0,0,1,280.56,345l-43.8-75.87c-27-46.8-71.24-46.8-98.26,0L94.7,345A28.36,28.36,0,0,1,56,355.36l-27.64-16A56.89,56.89,0,0,1,7.56,261.91L120.08,67,138.5,35.1c27-46.8,71.24-46.8,98.26,0L255.19,67,367.71,261.91A56.89,56.89,0,0,1,346.94,339.4Z"/></g></g></svg>